<svg xmlns="http://www.w3.org/2000/svg" width="34.209" height="34.208" viewBox="0 0 34.209 34.208">
  <path id="icons8-circled_menu" d="M6.8,3a3.8,3.8,0,1,0,3.8,3.8A3.8,3.8,0,0,0,6.8,3ZM20.1,3a3.8,3.8,0,1,0,3.8,3.8A3.8,3.8,0,0,0,20.1,3Zm13.3,0a3.8,3.8,0,1,0,3.8,3.8A3.8,3.8,0,0,0,33.408,3ZM6.8,16.3a3.8,3.8,0,1,0,3.8,3.8A3.8,3.8,0,0,0,6.8,16.3Zm13.3,0a3.8,3.8,0,1,0,3.8,3.8A3.8,3.8,0,0,0,20.1,16.3Zm13.3,0a3.8,3.8,0,1,0,3.8,3.8A3.8,3.8,0,0,0,33.408,16.3ZM6.8,29.607a3.8,3.8,0,1,0,3.8,3.8A3.8,3.8,0,0,0,6.8,29.607Zm13.3,0a3.8,3.8,0,1,0,3.8,3.8A3.8,3.8,0,0,0,20.1,29.607Zm13.3,0a3.8,3.8,0,1,0,3.8,3.8A3.8,3.8,0,0,0,33.408,29.607Z" transform="translate(-3 -3)" fill="#fff"/>
</svg>
