<svg xmlns="http://www.w3.org/2000/svg" width="42.209" height="42.208" viewBox="0 0 42.209 42.208">
  <path id="icons8-total_sales_1" d="M9.387,2a7.387,7.387,0,1,0,7.387,7.387A7.386,7.386,0,0,0,9.387,2ZM44.209,4.11,33.022,5.8l3.256,3.256-6.467,6.467-3.4-3.182-8.6,8.817-3.133-3.133-9.93,9.728L7.7,30.767l6.941-6.805,3.2,3.2,8.7-8.912L29.906,21.4l9.357-9.357L42.519,15.3ZM10.227,5.166h.54v8.442H7.9V8.348l-1.678.647V6.806Zm27.65,15.828V44.209H42.1V20.994Zm-8.442,4.221V44.209h4.221V25.215Zm-8.442,4.221V44.209h4.221V29.436Zm-8.442,4.221V44.209h4.221V33.656ZM4.11,37.877v6.331H8.331V37.877Z" transform="translate(-2 -2)" fill="#fff"/>
</svg>
