<svg xmlns="http://www.w3.org/2000/svg" width="42.301" height="42.337" viewBox="0 0 42.301 42.337">
  <path id="icons8-sport" d="M31.807,1.993a29.806,29.806,0,0,0-4.06.408,31.628,31.628,0,0,0-16.8,8.516l-.016.016-.012.012A31.713,31.713,0,0,0,2.4,27.809c-.929,5.6-.437,10.631,2.49,13.557s7.944,3.463,13.549,2.556a31.112,31.112,0,0,0,16.888-8.6,31.072,31.072,0,0,0,8.528-16.747c.929-5.6.412-10.658-2.457-13.652l-.029-.033-.033-.033a10.653,10.653,0,0,0-5.82-2.646A20.026,20.026,0,0,0,31.807,1.993Zm.045,4.287a17.873,17.873,0,0,1,2.935.239,7.444,7.444,0,0,1,3.582,1.368c1.093,1.178,2.115,5.223,1.323,10a27.035,27.035,0,0,1-7.349,14.456,27.051,27.051,0,0,1-14.579,7.415c-4.8.776-8.834-.318-9.889-1.373S5.767,33.305,6.565,28.5a27.7,27.7,0,0,1,7.358-14.583A27.581,27.581,0,0,1,28.44,6.564,20.647,20.647,0,0,1,31.853,6.28ZM30.08,13.188,26.3,16.972l-2.729-2.729-2.984,2.984,2.729,2.729L19.965,23.3l-2.729-2.729-2.984,2.984,2.729,2.729L13.2,30.072l2.984,2.984,3.784-3.784L22.694,32l2.984-2.984-2.729-2.729L26.3,22.941l2.729,2.729,2.984-2.984-2.729-2.729,3.784-3.784Z" transform="translate(-1.976 -1.984)" fill="#fff"/>
</svg>
