<svg xmlns="http://www.w3.org/2000/svg" width="37.988" height="37.988" viewBox="0 0 37.988 37.988">
  <path id="icons8-test_tube" d="M13.552,3V7.221h2.11V17.773L3.911,34.178A4.178,4.178,0,0,0,3,36.767a4.22,4.22,0,0,0,4.221,4.221H36.767a4.22,4.22,0,0,0,4.221-4.221,4.178,4.178,0,0,0-.911-2.589L28.325,17.773V7.221h2.11V3Zm6.331,4.221H24.1v8.442H19.883Zm-.54,12.663h5.3l12,16.752.062.062.058.07-29.534.016.054-.074.054-.074ZM24.1,24.1a2.11,2.11,0,1,0,2.11,2.11A2.11,2.11,0,0,0,24.1,24.1Zm-5.276,4.221a3.166,3.166,0,1,0,3.166,3.166A3.166,3.166,0,0,0,18.828,28.325Z" transform="translate(-3 -3)" fill="#fff"/>
</svg>
