<svg xmlns="http://www.w3.org/2000/svg" width="42.209" height="42.208" viewBox="0 0 42.209 42.208">
  <path id="icons8-geography" d="M23.1,2a21.1,21.1,0,1,0,21.1,21.1A21.128,21.128,0,0,0,23.1,2ZM37.7,14.663H32.84a27.061,27.061,0,0,0-2.22-6.656A17.009,17.009,0,0,1,37.7,14.663ZM39.988,23.1a16.783,16.783,0,0,1-.555,4.221H33.46c.127-1.357.2-2.767.2-4.221s-.07-2.864-.2-4.221h5.973A16.783,16.783,0,0,1,39.988,23.1ZM23.1,39.988c-1.779,0-4.113-3.126-5.392-8.442H28.494C27.218,36.862,24.883,39.988,23.1,39.988ZM17,27.325a39.2,39.2,0,0,1,0-8.442H29.208a39.685,39.685,0,0,1,.228,4.221,39.685,39.685,0,0,1-.228,4.221ZM6.221,23.1a16.783,16.783,0,0,1,.555-4.221h5.973c-.127,1.357-.2,2.767-.2,4.221s.07,2.864.2,4.221H6.776A16.783,16.783,0,0,1,6.221,23.1ZM23.1,6.221c1.779,0,4.113,3.126,5.392,8.442H17.712C18.991,9.346,21.325,6.221,23.1,6.221ZM15.591,8.006a27.061,27.061,0,0,0-2.22,6.656H8.5A17,17,0,0,1,15.591,8.006ZM8.5,31.546h4.865a27.061,27.061,0,0,0,2.22,6.656A17.009,17.009,0,0,1,8.5,31.546ZM30.617,38.2a27.149,27.149,0,0,0,2.22-6.656H37.7A16.984,16.984,0,0,1,30.617,38.2Z" transform="translate(-2 -2)" fill="#fff"/>
</svg>
