<?xml version="1.0" standalone="no"?>
<!DOCTYPE svg PUBLIC "-//W3C//DTD SVG 20010904//EN"
 "http://www.w3.org/TR/2001/REC-SVG-20010904/DTD/svg10.dtd">
<svg version="1.0" xmlns="http://www.w3.org/2000/svg"
 width="700.000000pt" height="700.000000pt" viewBox="0 0 700.000000 700.000000"
 preserveAspectRatio="xMidYMid meet">
<metadata>
Created by potrace 1.11, written by Peter Selinger 2001-2013
</metadata>
<g transform="translate(0.000000,700.000000) scale(0.100000,-0.100000)"
fill="#000000" stroke="none">
<path d="M3320 6813 c-856 -59 -1584 -385 -2165 -967 -535 -537 -855 -1196
-952 -1961 -26 -208 -23 -596 6 -810 131 -964 646 -1796 1446 -2332 451 -303
943 -480 1510 -545 140 -16 527 -16 670 1 1081 121 1988 706 2534 1635 373
633 524 1426 411 2156 -109 713 -429 1348 -930 1850 -512 514 -1157 838 -1880
944 -197 29 -477 41 -650 29z m380 -1363 c225 -28 419 -85 618 -180 808 -388
1259 -1288 1081 -2160 -138 -679 -640 -1244 -1301 -1464 -413 -138 -824 -138
-1237 0 -588 196 -1052 666 -1246 1258 -298 911 126 1916 990 2349 218 109
418 168 680 200 68 9 337 6 415 -3z"/>
<path d="M3403 5050 c-83 -37 -200 -174 -272 -318 -52 -104 -151 -387 -151
-434 0 -4 225 -8 501 -8 l501 0 -8 33 c-3 17 -27 91 -51 162 -121 355 -295
585 -443 585 -19 0 -54 -9 -77 -20z"/>
<path d="M2708 4865 c-193 -112 -415 -316 -521 -476 -31 -47 -57 -89 -57 -93
0 -3 99 -6 220 -6 l220 0 6 28 c36 161 103 367 164 498 21 46 36 84 32 83 -4
0 -33 -16 -64 -34z"/>
<path d="M4170 4897 c0 -2 19 -44 41 -93 49 -104 119 -314 145 -431 l19 -83
223 0 c176 0 222 3 216 13 -120 198 -271 359 -459 486 -92 63 -185 117 -185
108z"/>
<path d="M1946 3873 c-54 -176 -57 -394 -9 -670 l16 -93 276 0 276 0 0 390 0
390 -277 0 c-255 0 -277 -1 -282 -17z"/>
<path d="M2902 3873 c-9 -23 -9 -723 0 -745 7 -17 44 -18 571 -18 l564 0 6 38
c21 132 29 360 18 514 -7 90 -14 178 -18 196 l-5 32 -564 0 c-528 0 -565 -1
-572 -17z"/>
<path d="M4437 3853 c9 -49 9 -657 0 -705 l-8 -38 281 0 280 0 10 25 c49 129
58 439 18 635 l-23 115 -283 3 -283 2 8 -37z"/>
<path d="M2130 2712 c0 -13 57 -99 120 -181 69 -91 211 -229 300 -293 80 -57
209 -132 216 -125 3 2 -14 46 -36 97 -49 112 -109 291 -140 418 l-22 92 -219
0 c-121 0 -219 -4 -219 -8z"/>
<path d="M2980 2711 c0 -30 78 -260 119 -353 90 -201 189 -337 287 -394 143
-84 312 49 460 360 41 88 115 294 129 364 l7 32 -501 0 c-307 0 -501 -4 -501
-9z"/>
<path d="M4375 2708 c-2 -7 -14 -53 -25 -102 -30 -123 -84 -282 -136 -398 -23
-54 -40 -98 -36 -98 13 0 185 101 227 133 145 112 262 236 358 381 31 47 57
87 57 90 0 4 -99 6 -220 6 -168 0 -222 -3 -225 -12z"/>
</g>
</svg>
