<?xml version="1.0" encoding="utf-8"?>
<!-- Generator: Adobe Illustrator 23.0.4, SVG Export Plug-In . SVG Version: 6.00 Build 0)  -->
<svg version="1.1" id="Ebene_1" xmlns="http://www.w3.org/2000/svg" xmlns:xlink="http://www.w3.org/1999/xlink" x="0px" y="0px"
	 viewBox="0 0 50 50" style="enable-background:new 0 0 50 50;" xml:space="preserve">
<style type="text/css">
	.st0{fill:#B162FF;}
	.st1{fill:#FFFFFF;}
</style>
<g id="Gruppe_15" transform="translate(-351.843 -259.518)">
	<g transform="matrix(1, 0, 0, 1, 351.84, 259.52)">
		<path id="Pfad_3-2" class="st0" d="M25,1.3c13.1,0,23.7,10.6,23.7,23.7S38.1,48.7,25,48.7S1.3,38.1,1.3,25c0,0,0,0,0,0
			C1.3,11.9,11.9,1.3,25,1.3z"/>
	</g>
	<path id="icons8-geography" class="st1" d="M376.7,270.5c-7.7,0-14,6.3-14,14c0,7.7,6.3,14,14,14c7.7,0,14-6.3,14-14l0,0
		C390.6,276.8,384.4,270.5,376.7,270.5z M386.3,278.9h-3.2c-0.3-1.5-0.8-3-1.5-4.4C383.6,275.5,385.2,277,386.3,278.9z M387.9,284.5
		c0,0.9-0.1,1.9-0.4,2.8h-4c0.1-0.9,0.1-1.8,0.1-2.8c0-1,0-1.9-0.1-2.8h4C387.7,282.6,387.9,283.6,387.9,284.5z M376.7,295.7
		c-1.2,0-2.7-2.1-3.6-5.6h7.2C379.4,293.7,377.8,295.7,376.7,295.7z M372.6,287.3c-0.2-1.9-0.2-3.7,0-5.6h8.1
		c0.1,0.9,0.2,1.9,0.2,2.8c0,0.9-0.1,1.9-0.2,2.8H372.6z M365.4,284.5c0-0.9,0.1-1.9,0.4-2.8h4c-0.1,0.9-0.1,1.8-0.1,2.8
		c0,1,0,1.9,0.1,2.8h-4C365.6,286.4,365.5,285.5,365.4,284.5z M376.7,273.3c1.2,0,2.7,2.1,3.6,5.6h-7.2
		C373.9,275.4,375.5,273.3,376.7,273.3z M371.7,274.5c-0.7,1.4-1.2,2.9-1.5,4.4H367C368.1,277,369.7,275.5,371.7,274.5z M367,290.1
		h3.2c0.3,1.5,0.8,3,1.5,4.4C369.7,293.6,368.1,292,367,290.1z M381.6,294.5c0.7-1.4,1.2-2.9,1.5-4.4h3.2
		C385.2,292,383.6,293.6,381.6,294.5z"/>
</g>
</svg>
